<?xml version="1.0" standalone="no"?>
<!DOCTYPE svg PUBLIC "-//W3C//DTD SVG 20010904//EN"
 "http://www.w3.org/TR/2001/REC-SVG-20010904/DTD/svg10.dtd">
<svg version="1.0" xmlns="http://www.w3.org/2000/svg"
 width="600.000000pt" height="600.000000pt" viewBox="0 0 600.000000 600.000000"
 preserveAspectRatio="xMidYMid meet">
<metadata>
Created by potrace 1.11, written by Peter Selinger 2001-2013
</metadata>
<g transform="translate(0.000000,600.000000) scale(0.100000,-0.100000)"
fill="#000000" stroke="none">
<path d="M2405 5254 c-83 -10 -174 -27 -210 -39 -22 -8 -53 -16 -68 -20 -15
-3 -26 -9 -23 -13 2 -4 -3 -8 -12 -9 -36 -3 -134 -38 -167 -60 -11 -7 -27 -13
-36 -13 -10 0 -19 -5 -21 -11 -2 -5 -10 -11 -18 -13 -31 -6 -80 -33 -73 -39 3
-4 -3 -7 -15 -7 -11 0 -24 -4 -27 -10 -3 -5 -15 -10 -26 -10 -11 0 -22 -6 -25
-14 -3 -8 -16 -17 -30 -20 -13 -4 -24 -11 -24 -16 0 -6 -7 -10 -15 -10 -8 0
-15 -4 -15 -10 0 -5 -7 -10 -15 -10 -8 0 -15 -4 -15 -9 0 -5 -8 -11 -17 -15
-18 -5 -43 -20 -72 -43 -101 -77 -188 -153 -243 -210 -37 -39 -70 -68 -72 -65
-3 2 -10 -6 -15 -19 -5 -13 -21 -37 -35 -52 -14 -15 -26 -30 -26 -33 0 -2 -13
-18 -30 -35 -16 -18 -27 -35 -24 -40 3 -5 1 -9 -4 -9 -4 0 -20 -21 -34 -47
-77 -145 -99 -194 -92 -205 3 -4 0 -8 -7 -8 -7 0 -9 -3 -6 -7 4 -3 3 -11 -2
-17 -14 -18 -71 -209 -77 -256 -3 -24 -7 -46 -9 -50 -7 -12 -44 -250 -56 -360
-19 -180 -16 -779 4 -915 19 -128 62 -328 77 -355 5 -10 10 -27 10 -38 0 -11
7 -33 15 -48 8 -16 15 -36 15 -44 0 -9 6 -24 14 -35 7 -11 17 -31 21 -45 13
-44 88 -190 97 -190 5 0 7 -4 4 -9 -3 -5 2 -19 12 -32 9 -13 26 -39 36 -58 19
-33 37 -59 63 -86 7 -8 13 -16 13 -19 0 -2 14 -20 30 -38 17 -18 30 -35 30
-39 0 -4 20 -28 45 -53 25 -25 43 -46 40 -46 -3 0 5 -11 19 -25 14 -14 29 -25
35 -25 5 0 23 -16 40 -35 17 -19 34 -35 39 -35 5 0 17 -10 28 -21 10 -12 39
-35 64 -52 25 -17 50 -36 57 -42 32 -27 42 -34 70 -48 16 -9 35 -22 42 -31 7
-8 26 -18 42 -21 16 -4 29 -11 29 -16 0 -6 4 -8 9 -4 6 3 13 0 18 -7 7 -11 90
-56 133 -72 8 -3 26 -14 40 -23 13 -10 21 -12 16 -5 -4 7 8 4 27 -7 19 -11 37
-17 40 -14 3 2 16 -3 29 -11 14 -9 28 -13 31 -9 4 3 7 1 7 -5 0 -7 6 -12 14
-12 8 0 47 -11 87 -25 40 -13 76 -22 81 -19 4 3 8 1 8 -4 0 -27 176 -38 214
-14 11 7 29 11 56 15 25 3 132 82 170 124 48 53 68 96 80 173 13 87 14 2317 0
2391 -13 70 -39 129 -67 154 -13 11 -23 25 -23 31 0 12 -74 74 -88 74 -6 0
-13 7 -16 16 -3 8 -10 12 -16 9 -5 -3 -10 -3 -10 2 0 4 -17 14 -37 21 -41 14
-45 15 -113 26 l-45 8 2 156 3 156 57 13 c32 6 68 12 81 12 31 1 132 48 132
61 0 6 5 8 10 5 6 -3 10 -2 10 2 0 5 23 23 50 41 28 18 48 37 45 42 -3 5 5 16
17 24 12 9 18 16 13 16 -6 0 -3 6 5 13 19 15 64 87 55 87 -4 0 0 11 8 24 9 13
18 35 21 49 2 14 10 36 17 49 28 52 16 267 -16 290 -5 4 -6 8 -2 8 5 0 -1 15
-12 33 -11 19 -17 38 -13 42 4 5 2 5 -4 2 -7 -4 -14 3 -18 16 -8 34 -167 192
-180 180 -3 -4 -6 -2 -6 3 0 15 -79 57 -95 50 -7 -2 -15 -1 -17 3 -4 10 -101
20 -143 15z"/>
<path d="M3510 5223 c-48 -7 -135 -37 -156 -55 -11 -10 -23 -15 -27 -12 -4 4
-9 -1 -13 -10 -3 -9 -11 -16 -18 -16 -6 0 -30 -23 -54 -50 -24 -28 -50 -50
-58 -50 -7 0 -14 -6 -14 -14 0 -8 -7 -22 -16 -30 -8 -9 -12 -16 -7 -16 4 0 4
-4 -2 -8 -15 -10 -61 -111 -74 -158 -6 -23 -11 -62 -11 -87 0 -57 38 -227 51
-227 6 0 7 -4 4 -10 -7 -12 16 -57 45 -87 11 -13 18 -23 14 -23 -4 0 26 -33
68 -72 74 -72 170 -134 188 -123 6 4 10 2 10 -4 0 -5 8 -10 18 -10 9 0 47 -6
85 -12 l67 -12 -2 -156 -3 -156 -43 -3 c-23 -2 -40 -7 -37 -12 3 -4 -4 -6 -15
-3 -11 3 -31 -2 -45 -11 -14 -9 -25 -14 -25 -11 0 3 -19 -7 -42 -21 -50 -32
-148 -123 -148 -139 0 -5 -8 -15 -19 -22 -10 -6 -22 -27 -27 -45 -4 -18 -9
-584 -11 -1258 -4 -1288 -4 -1284 40 -1331 10 -10 16 -19 13 -19 -3 0 11 -17
29 -37 19 -21 35 -42 35 -46 0 -5 4 -6 8 -3 4 2 27 -11 51 -29 24 -19 47 -32
52 -29 5 3 9 1 9 -4 0 -27 181 -42 250 -21 19 5 44 12 54 14 32 7 181 59 186
64 3 3 14 7 25 9 11 2 43 14 70 27 28 12 71 30 98 40 26 9 47 21 47 26 0 5 9
9 19 9 11 0 26 7 35 15 8 8 18 15 22 15 4 0 21 11 38 24 17 13 41 26 52 30 12
4 31 14 42 24 11 9 30 24 42 32 12 8 41 30 64 47 22 18 44 33 48 33 4 0 27 19
51 43 24 23 80 77 125 121 45 43 82 82 82 87 0 4 8 14 18 21 10 7 21 21 25 31
4 10 10 16 14 14 5 -3 17 7 28 22 12 16 14 22 4 16 -8 -5 -6 -2 6 9 11 10 19
23 18 27 -2 5 2 9 7 9 6 0 10 5 10 11 0 6 11 25 25 43 14 18 25 37 25 43 0 5
9 19 21 32 12 12 22 28 23 35 1 7 9 24 17 37 43 67 112 247 162 419 45 155 92
583 83 746 -3 38 -7 146 -11 239 -8 206 -44 506 -75 627 -32 125 -72 248 -102
318 -44 101 -83 180 -90 180 -5 0 -8 4 -8 10 0 14 -73 120 -82 120 -4 0 -8 6
-8 13 0 7 -9 18 -21 25 -12 7 -19 16 -16 18 2 3 -7 17 -22 33 -14 15 -33 36
-42 47 -19 23 -139 133 -143 131 -3 -2 -21 14 -77 66 -10 9 -23 17 -27 17 -5
0 -19 11 -32 25 -13 14 -29 25 -37 25 -7 0 -13 4 -13 9 0 5 -21 19 -46 32 -78
40 -84 43 -84 51 0 5 -18 15 -40 24 -22 9 -40 21 -40 27 0 6 -3 8 -6 4 -3 -3
-25 6 -48 20 -22 15 -47 26 -53 26 -7 0 -13 4 -13 9 0 5 -4 7 -9 3 -5 -3 -12
-1 -16 5 -4 6 -11 7 -17 4 -6 -4 -17 1 -25 11 -7 11 -13 15 -13 11 0 -5 -6 -4
-12 1 -11 8 -98 44 -118 49 -3 0 -18 6 -33 12 -15 7 -42 14 -59 17 -17 3 -40
11 -51 17 -11 5 -36 12 -55 14 -19 1 -56 7 -81 13 -66 14 -102 18 -131 14z"/>
</g>
</svg>
